<svg id="Camada_1" data-name="Camada 1" xmlns="http://www.w3.org/2000/svg" viewBox="0 0 536.5 140.5"><defs><style>.cls-1,.cls-2{fill-rule:evenodd;}.cls-2,.cls-3{fill:#fff;}</style></defs><title>logo branco</title><path class="cls-1" d="M237,114.89l-.33,1.6h0a6.16,6.16,0,0,1,1.8-1.42,4.56,4.56,0,0,1,2.12-.51,3.92,3.92,0,0,1,1.9.44,2.15,2.15,0,0,1,1,1.54,6.8,6.8,0,0,1,1.67-1.38,4.2,4.2,0,0,1,2.2-.6,5.47,5.47,0,0,1,1.64.23,2.57,2.57,0,0,1,1.17.74,2.61,2.61,0,0,1,.59,1.32,5.36,5.36,0,0,1-.1,2l-1.65,7.95h-3.15l1.4-6.73c.08-.4.15-.77.19-1.12a2.11,2.11,0,0,0-.05-.92,1.11,1.11,0,0,0-.46-.62,1.82,1.82,0,0,0-1-.23,2.26,2.26,0,0,0-1.13.26,2.62,2.62,0,0,0-.79.69,3.47,3.47,0,0,0-.51,1,8.45,8.45,0,0,0-.3,1.09l-1.37,6.61h-3.15l1.39-6.66c.07-.35.14-.7.2-1a2.72,2.72,0,0,0,0-1,1.11,1.11,0,0,0-.41-.7,1.8,1.8,0,0,0-1.1-.26,2.72,2.72,0,0,0-.62.1,2.57,2.57,0,0,0-.8.39,3.13,3.13,0,0,0-.77.83,4,4,0,0,0-.54,1.41l-1.44,6.89h-3.14L234,114.89Z"/><path class="cls-1" d="M254.52,123.9a2.27,2.27,0,0,0,1.89.71,3.27,3.27,0,0,0,1.75-.49,2.75,2.75,0,0,0,1.06-1H262a7.34,7.34,0,0,1-2.68,3.05,6.86,6.86,0,0,1-3.52.92,5.69,5.69,0,0,1-2.36-.45,3.73,3.73,0,0,1-1.57-1.27,4.5,4.5,0,0,1-.75-2,7.23,7.23,0,0,1,.12-2.53,8.36,8.36,0,0,1,.94-2.48,7.92,7.92,0,0,1,1.61-2,7.58,7.58,0,0,1,2.13-1.32,6.52,6.52,0,0,1,2.49-.48,4.6,4.6,0,0,1,2.43.59,3.8,3.8,0,0,1,1.47,1.57,5.42,5.42,0,0,1,.54,2.25,8.73,8.73,0,0,1-.33,2.64h-8.29a2.94,2.94,0,0,0,.3,2.3Zm4.86-6.24a1.78,1.78,0,0,0-1.59-.64,3,3,0,0,0-1.31.26,3.23,3.23,0,0,0-.94.65,3.18,3.18,0,0,0-.59.82,4.37,4.37,0,0,0-.31.78h5.14a3.18,3.18,0,0,0-.4-1.88Z"/><path class="cls-1" d="M273.45,127.62a5.22,5.22,0,0,1-1.17,1.71,6.45,6.45,0,0,1-2.08,1.34,8.34,8.34,0,0,1-3.27.55,6.67,6.67,0,0,1-1.68-.22,4.21,4.21,0,0,1-1.46-.67,3,3,0,0,1-1-1.17,3.09,3.09,0,0,1-.18-1.73h3.13a1.43,1.43,0,0,0,.6,1.27,2.63,2.63,0,0,0,1.41.35,2.77,2.77,0,0,0,2.12-.83,4.07,4.07,0,0,0,1-2.09l.33-1.56h-.06a4.33,4.33,0,0,1-1.74,1.4,5.18,5.18,0,0,1-2.08.45,4.28,4.28,0,0,1-2.12-.47,3.13,3.13,0,0,1-1.26-1.28,4.49,4.49,0,0,1-.48-1.91,9.13,9.13,0,0,1,.2-2.31,8.92,8.92,0,0,1,.78-2.22,7.6,7.6,0,0,1,1.33-1.88,6.19,6.19,0,0,1,1.81-1.3,5.12,5.12,0,0,1,2.22-.48,3.73,3.73,0,0,1,1.89.44,2.57,2.57,0,0,1,1.12,1.47H273l.33-1.58h3L274,126a9.23,9.23,0,0,1-.53,1.63Zm-3.5-3.95a3.32,3.32,0,0,0,1-.73,4.35,4.35,0,0,0,.72-1,5.2,5.2,0,0,0,.42-1.23,7.16,7.16,0,0,0,.15-1.39,3,3,0,0,0-.21-1.16,1.73,1.73,0,0,0-.65-.8,2.2,2.2,0,0,0-1.23-.3,2.58,2.58,0,0,0-1.2.28,3.29,3.29,0,0,0-1,.75,4.2,4.2,0,0,0-.69,1.08,6.35,6.35,0,0,0-.41,1.27,6.8,6.8,0,0,0-.14,1.27,2.94,2.94,0,0,0,.19,1.14,1.85,1.85,0,0,0,.62.82,1.88,1.88,0,0,0,1.16.32,2.82,2.82,0,0,0,1.24-.27Z"/><path class="cls-1" d="M278,116.65a5.14,5.14,0,0,1,1.49-1.22,6.5,6.5,0,0,1,1.83-.65,9.81,9.81,0,0,1,1.93-.2,11.72,11.72,0,0,1,1.72.13,4.43,4.43,0,0,1,1.52.49,2.42,2.42,0,0,1,1,1,2.63,2.63,0,0,1,.1,1.73l-1.28,6.16a12.55,12.55,0,0,0-.23,1.53,2.49,2.49,0,0,0,.08,1.1H283a4.3,4.3,0,0,1,0-.56,4.85,4.85,0,0,1,0-.59,5.29,5.29,0,0,1-2,1.12,7.66,7.66,0,0,1-2.15.32,5,5,0,0,1-1.49-.21,2.63,2.63,0,0,1-1.11-.64,2.24,2.24,0,0,1-.6-1.1,3.58,3.58,0,0,1,0-1.58,4.17,4.17,0,0,1,.69-1.66,4,4,0,0,1,1.11-1,5,5,0,0,1,1.36-.59,14.87,14.87,0,0,1,1.47-.31c.49-.08,1-.14,1.44-.19a9.11,9.11,0,0,0,1.26-.2,2.65,2.65,0,0,0,.93-.4,1.14,1.14,0,0,0,.44-.77,1.62,1.62,0,0,0,0-.84A.92.92,0,0,0,284,117a1.41,1.41,0,0,0-.6-.23,4.81,4.81,0,0,0-.77-.06,2.72,2.72,0,0,0-1.55.42,2.43,2.43,0,0,0-.91,1.38h-3.14a4.76,4.76,0,0,1,1-1.91Zm5.26,4.59a6.18,6.18,0,0,1-.68.17c-.24,0-.49.08-.75.11l-.78.12a6.48,6.48,0,0,0-.74.18,2.45,2.45,0,0,0-.66.31,1.85,1.85,0,0,0-.52.49,1.93,1.93,0,0,0-.32.76,1.45,1.45,0,0,0,0,.73.89.89,0,0,0,.32.47,1.49,1.49,0,0,0,.57.24,3.76,3.76,0,0,0,.72.07,3.08,3.08,0,0,0,1.51-.32,2.86,2.86,0,0,0,.92-.77,3.06,3.06,0,0,0,.49-.91c.1-.3.17-.55.21-.73l.25-1.21a1.77,1.77,0,0,1-.56.29Z"/><path class="cls-1" d="M290.53,123.81a1.44,1.44,0,0,0,.42.62,1.8,1.8,0,0,0,.69.36,3.19,3.19,0,0,0,.88.11,3.54,3.54,0,0,0,.72-.08,2.88,2.88,0,0,0,.72-.25,2.1,2.1,0,0,0,.6-.46,1.5,1.5,0,0,0,.35-.72c.1-.49-.14-.86-.72-1.1a16.25,16.25,0,0,0-2.48-.73,13,13,0,0,1-1.27-.38,3.53,3.53,0,0,1-1-.57,2.06,2.06,0,0,1-.64-.89,2.42,2.42,0,0,1,0-1.32,4.22,4.22,0,0,1,2.2-3,6,6,0,0,1,1.72-.6,10.21,10.21,0,0,1,1.86-.17,8.26,8.26,0,0,1,1.77.18,3.77,3.77,0,0,1,1.44.62,2.76,2.76,0,0,1,.9,1.16,3.58,3.58,0,0,1,.16,1.83h-3c.08-.64-.06-1.06-.42-1.29a2.64,2.64,0,0,0-1.39-.34c-.18,0-.37,0-.59,0a2.2,2.2,0,0,0-.59.15,1.55,1.55,0,0,0-.5.33,1.13,1.13,0,0,0-.3.58.76.76,0,0,0,.16.71,1.8,1.8,0,0,0,.72.45,8.21,8.21,0,0,0,1.08.31l1.24.29a11.68,11.68,0,0,1,1.27.39,3.35,3.35,0,0,1,1,.61,2.18,2.18,0,0,1,.63.94,2.64,2.64,0,0,1,0,1.39,4.7,4.7,0,0,1-.87,2,5,5,0,0,1-1.45,1.27,5.81,5.81,0,0,1-1.82.68,10.07,10.07,0,0,1-2,.2,8.53,8.53,0,0,1-1.91-.21,4.1,4.1,0,0,1-1.56-.69,2.88,2.88,0,0,1-1-1.27,3.69,3.69,0,0,1-.11-2h3a1.73,1.73,0,0,0,0,.91Z"/><path class="cls-1" d="M307.68,114.9l-.45,2.17h-2.31l-1.22,5.87a1.46,1.46,0,0,0,0,1.1c.14.19.47.28,1,.28l.52,0,.48-.07-.53,2.53a8.18,8.18,0,0,1-.9.09l-1,0a8.46,8.46,0,0,1-1.36-.1,2.67,2.67,0,0,1-1.07-.4,1.58,1.58,0,0,1-.61-.85,2.92,2.92,0,0,1,0-1.45l1.45-7h-1.91l.45-2.17h1.91l.46-2.23h3.14l-.46,2.23Z"/><path class="cls-1" d="M308.16,118.24a7.48,7.48,0,0,1,1.61-2,7.08,7.08,0,0,1,4.67-1.71,5.74,5.74,0,0,1,2.36.45,4,4,0,0,1,1.62,1.26,4.43,4.43,0,0,1,.79,2,7.25,7.25,0,0,1-.12,2.59,8.66,8.66,0,0,1-1,2.57,7.54,7.54,0,0,1-1.61,2,6.83,6.83,0,0,1-2.14,1.25,7.35,7.35,0,0,1-2.55.44,5.83,5.83,0,0,1-2.35-.44,4,4,0,0,1-1.61-1.25,4.46,4.46,0,0,1-.79-2,7.14,7.14,0,0,1,.11-2.57,8.76,8.76,0,0,1,1-2.58Zm2,4a3.27,3.27,0,0,0,.2,1.21,1.86,1.86,0,0,0,.68.86,2.24,2.24,0,0,0,1.27.32,3,3,0,0,0,1.42-.32,3.28,3.28,0,0,0,1.05-.86,4.83,4.83,0,0,0,.71-1.21,8.29,8.29,0,0,0,.42-1.39,7.31,7.31,0,0,0,.16-1.4,3.12,3.12,0,0,0-.21-1.22,2,2,0,0,0-.69-.86,2.25,2.25,0,0,0-1.29-.33,2.88,2.88,0,0,0-1.41.33,3.62,3.62,0,0,0-1,.86,4.62,4.62,0,0,0-.71,1.22,8.54,8.54,0,0,0-.43,1.4,7.06,7.06,0,0,0-.15,1.39Z"/><path class="cls-1" d="M324.41,114.89l-.46,2.2h0a5.81,5.81,0,0,1,.82-1,5.23,5.23,0,0,1,1-.81,5.29,5.29,0,0,1,1.15-.52,4,4,0,0,1,1.19-.19,2.22,2.22,0,0,1,.66.12l-.63,3-.52-.08a5.27,5.27,0,0,0-.59,0,3.67,3.67,0,0,0-1.53.3,3.44,3.44,0,0,0-1.14.82,4.28,4.28,0,0,0-.77,1.2,7.56,7.56,0,0,0-.47,1.49l-1.11,5.34h-3.17l2.47-11.87Z"/><path class="cls-1" d="M332,123.91a2.26,2.26,0,0,0,1.89.71,3.25,3.25,0,0,0,1.75-.49,2.73,2.73,0,0,0,1.06-1h2.78a7.31,7.31,0,0,1-2.68,3.05,6.87,6.87,0,0,1-3.52.92,5.66,5.66,0,0,1-2.35-.45,3.8,3.8,0,0,1-1.58-1.27,4.55,4.55,0,0,1-.75-2,7.2,7.2,0,0,1,.11-2.53,8.45,8.45,0,0,1,.94-2.48,7.74,7.74,0,0,1,1.61-2,7.49,7.49,0,0,1,2.12-1.32,6.54,6.54,0,0,1,2.49-.48,4.61,4.61,0,0,1,2.43.59,3.79,3.79,0,0,1,1.47,1.57,5.45,5.45,0,0,1,.54,2.25,8.65,8.65,0,0,1-.32,2.64h-8.29a2.89,2.89,0,0,0,.3,2.3Zm4.86-6.24a1.77,1.77,0,0,0-1.59-.64,3,3,0,0,0-1.31.26,3.17,3.17,0,0,0-.93.65,3.26,3.26,0,0,0-.59.82,4.62,4.62,0,0,0-.3.78h5.13a3.14,3.14,0,0,0-.4-1.88Z"/><path class="cls-1" d="M115,92.59a35.49,35.49,0,0,0,12.35,2.48c2.82,0,9.81-.33,9.81-5.1,0-8.19-20.89-4-20.89-23C116.23,53.44,130,48,141.78,48a51.06,51.06,0,0,1,15.16,2.85,1.71,1.71,0,0,1,1.17,2.27l-2.56,9.07a2.19,2.19,0,0,1-2.89,1.48s-6.5-2.39-11.75-2.39c-3.89,0-8.16,1-8.16,5,0,6.42,21.86,6,21.86,20.48,0,14.28-10.59,21.29-23.71,21.59a72.06,72.06,0,0,1-19-2.46,2.32,2.32,0,0,1-1.73-2.85l2.5-9.73S113.12,91.91,115,92.59Z"/><path class="cls-1" d="M266,27a3,3,0,0,1,2.81-2.34h12.91a1.92,1.92,0,0,1,2,2.34L269.38,104.7a3,3,0,0,1-2.82,2.34H253.65a1.92,1.92,0,0,1-2-2.34L266,27Z"/><path class="cls-1" d="M289.19,27A3,3,0,0,1,292,24.62h12.91a1.92,1.92,0,0,1,2,2.34l-14.3,77.75a3,3,0,0,1-2.81,2.34H276.85a1.92,1.92,0,0,1-2-2.34L289.19,27Z"/><path class="cls-1" d="M42,104.74A4.73,4.73,0,0,1,38.1,107H18.35a3,3,0,0,1-3-2.55L6,26.72a2.28,2.28,0,0,1,2.38-2.55H23.47a2.91,2.91,0,0,1,2.89,2.56L31.07,84.3a15.49,15.49,0,0,0,.32,2.56,18.48,18.48,0,0,0,1.21-2.34l27.28-58a4.54,4.54,0,0,1,3.78-2.34H80.25c1.47,0,2.15,1,1.51,2.31L42,104.74Z"/><path class="cls-1" d="M161,63.28h4.59a1.92,1.92,0,0,1,2,2.35l-2.6,13.82c-.29,1.5-.53,2.8-.73,4l-.72,6.07c-.06.48-.09,1-.12,1.44,0,.13,0,.26,0,.39a25.37,25.37,0,0,0,.32,4.11c1.77,8.89,10.28,14.35,21.33,12.71a29.07,29.07,0,0,0,3.26-.68,3.5,3.5,0,0,0,2.57-2.56l1.49-10.09s0-.68-.69-.39a13.57,13.57,0,0,1-4.88,1.32c-3.52,0-5.78-2.55-5.78-6.42a51.3,51.3,0,0,1,1-7.62c.26-1.29.68-3.41.92-4.7l2.15-11.36a3,3,0,0,1,2.85-2.35h8a2.9,2.9,0,0,0,2.77-2.37l1.42-9.22a2,2,0,0,0-2-2.37h-7.33A1.91,1.91,0,0,1,188.81,47l2.61-13.35c.25-1.29-.58-2-1.84-1.65l-14,4.25a4.41,4.41,0,0,0-2.76,3L171.28,47a3,3,0,0,1-2.87,2.35h-5.28a2.9,2.9,0,0,0-2.77,2.37l-1.42,9.22A2,2,0,0,0,161,63.28Z"/><path class="cls-1" d="M257.59,49.78H243.81a4.13,4.13,0,0,0-3.41,2.15L225.25,83.79a17.52,17.52,0,0,1-1.12,2.15,15.11,15.11,0,0,1-.4-2.36l-4-31.44a2.78,2.78,0,0,0-2.68-2.36h-13a1.89,1.89,0,0,0-1.93,2.33l10.72,54.71c-2,5.83-5.25,9.45-10.2,9.45a18.94,18.94,0,0,1-5.72-.85,2.14,2.14,0,0,0-2.84,1.5s-2.7,10.33-2.72,10.77a2.18,2.18,0,0,0,1.65,2h0a36.29,36.29,0,0,0,11.67,1.74c11.17,0,16.91-6.7,22.05-16.81L258.9,51.9A1.34,1.34,0,0,0,257.59,49.78Z"/><path class="cls-1" d="M91.85,48.47c-22.54,0-30.93,20.44-31.34,33.74-.44,14.4,8.34,26.16,25.24,26.16a52.89,52.89,0,0,0,15.51-2.49,3.67,3.67,0,0,0,2.65-2.6c.17-.56,1.83-9.71,1.83-9.71.24-1.29-.57-2-1.83-1.55,0,0-3.17,1.11-6.72,2-.61.18-1.24.33-1.88.46l-.13,0h0c-7.48,1.4-14.35-1.32-16.77-6.28h0a12.19,12.19,0,0,1-1.09-2.86c-.17-.92.4-1.13.83-1.17a4.12,4.12,0,0,1,.44,0h32.2a2.63,2.63,0,0,0,2.46-2,60.57,60.57,0,0,0,1.16-8.76C114.93,56,105.16,48.47,91.85,48.47Zm8,24.51H79.95c-.65,0-1.38-.22-.71-1.78,3-6.88,9.76-10.47,14.78-8.91a7.4,7.4,0,0,1,3.95,3,8.93,8.93,0,0,1,1.43,3.09l0,.14c0,.1.05.19.07.29A15.8,15.8,0,0,1,100,73Z"/><path class="cls-1" d="M331.12,48.47c-22.54,0-30.93,20.44-31.34,33.74-.44,14.4,8.34,26.16,25.24,26.16a52.93,52.93,0,0,0,15.51-2.49,3.68,3.68,0,0,0,2.65-2.6c.17-.56,1.83-9.71,1.83-9.71.25-1.29-.57-2-1.82-1.55,0,0-3.17,1.11-6.72,2-.61.18-1.24.33-1.88.46l-.14,0h0c-7.48,1.4-14.34-1.32-16.77-6.28h0a12,12,0,0,1-1.1-2.86c-.17-.92.4-1.13.83-1.17a4.13,4.13,0,0,1,.44,0H350a2.63,2.63,0,0,0,2.46-2,60.21,60.21,0,0,0,1.17-8.76C354.2,56,344.43,48.47,331.12,48.47Zm8,24.51H319.22c-.65,0-1.38-.22-.71-1.78,3-6.88,9.76-10.47,14.79-8.91a7.41,7.41,0,0,1,3.94,3,8.85,8.85,0,0,1,1.42,3.09l0,.14.07.29a15.92,15.92,0,0,1,.45,4.16Z"/><path class="cls-1" d="M482.43,42.37a1.53,1.53,0,0,0-2,0c-12.47,11.22-23,13.44-37,13.5S417,53,405.52,49.72a235.43,235.43,0,0,1-33.15-11.64h-.06c-1.28-.5-3.13-1.62-3.35-2.48,0-.06-.08-.33.46-.87.71-.67,1.39-1.33.77-2.3a1.63,1.63,0,0,0-1.72-.53c-.92.35-8.92,8.1-8.59,10.75,0,.41.09.78.11,1.15.13,1.64.27,3.67,2.89,4.54a241.81,241.81,0,0,0,51,15.16c-7,3-19.7,5.24-33.82-.72-.1,0-.16-.06-.31-.07s-5.63-1.2-4.87-4.9c0-.1,0-.24,0-.38a1.4,1.4,0,0,0-1.26-1.19c-1.4-.24-1.4-.24-7.64,13.88a1.31,1.31,0,0,0,.44,1.54c8.11,6.34,19,10.54,30.82,12-2,1.74-2.72,3.73-12.89,2.57-4.73-.36-7.59-1.52-6.88-3.84.42-1.41-.4-2.14-1-2.23-1.43-.27-1.23-2.27-7.43,11.9a1.27,1.27,0,0,0,.68,1.71c8.37,4,15.53,3.87,23.84,3.71,2-.06,4.07-.07,6.16-.06.77,0,1.59,0,2.43,0-1,.43-2.58,1-4.85,1.77l-.2.05a31.45,31.45,0,0,1-5.17,1.26,23.64,23.64,0,0,0-8.2,2.69l-.33.16-.45.21a1.25,1.25,0,0,0-.69,1.63,3.75,3.75,0,0,0,1.44,1.58A60.59,60.59,0,0,0,401.45,111c-4.88,1.83-9.55,4-13.3,7.4a1.17,1.17,0,0,0-.43,1,1.33,1.33,0,0,0,.54,1,20.14,20.14,0,0,0,7.43,3.41,28.43,28.43,0,0,1,6.41,2.53,9.23,9.23,0,0,1-4.17,2A116.32,116.32,0,0,0,385,132.13c-2.48.81-4.25,2.56-3.77,3.75.61,1.37,2.26,2.08,7,1.23s21-5.85,21.08-5.84c2.05-.83,5.92-2.12,7.11-5a1.25,1.25,0,0,0-.55-1.59c-3.24-2-7.67-4.72-11.21-6-1.23-.46-2.42-.88-3.6-1.34a144.06,144.06,0,0,0,20.41-12.68,1.47,1.47,0,0,0,.37-1.46,1.58,1.58,0,0,0-1.28-.91,122.54,122.54,0,0,1-14.71-1.72,109.15,109.15,0,0,0,31.27-15.69,1.3,1.3,0,0,0,.31-1.76,1.47,1.47,0,0,0-1.85-.49c-10.21,4.69-22.48,6.59-34.65,5.48a127.26,127.26,0,0,0,19.61-6.07c.83-.35,1.72-.7,2.65-1.12a74.19,74.19,0,0,0,15.55-9.21,1.35,1.35,0,0,0,.23-1.82,1.5,1.5,0,0,0-1.91-.36l-.38.17a1.85,1.85,0,0,0-.58.19l-1.28.74-3.73,2.12c-9.56,3.93-21.18,2.08-29.07.29a51.51,51.51,0,0,1-6.4-1.84c13.81-.52,25-1.41,35.6-2.76,22-2.8,40.24-11.44,51.36-24.32a1.26,1.26,0,0,0-.15-1.8Z"/><path class="cls-1" d="M462.18,21.54c-4.33-8.22-20.15-9.88-32.35-8.75-10.74.95-27.91,10.07-28.65,10.45a1.27,1.27,0,0,0-.5,1.82,1.48,1.48,0,0,0,1.92.56c.1-.06,9.93-5,28.78-6.33,15.14-1.06,19.74,5.9,20.15,7.83.67,3.19,1.94,9.07-14.61,13.39-15.74,4.08-43.82-13.81-51.06-18.69l9.62-5.3a1.25,1.25,0,0,0,.59-1.58,1.5,1.5,0,0,0-1.52-.9l-.63.09c-6.83.74-22.9,2.68-22,10.84.22,1.68,2,3.71,5.44,6.11,12.31,8.73,46.72,22.84,63.39,20.06,10.63-1.75,18.65-6.47,22.08-12.91,2.67-5,2.43-10.81-.68-16.69Z"/><path class="cls-1" d="M483,15.24C469.29-2.6,448.22,4.79,447.39,5a1.32,1.32,0,0,0-1,1.5,1.42,1.42,0,0,0,1.53,1.14c.2,0,20.55-1.2,27.61,12.3,2.83,5.52-.87,18.07-4.11,20.16a1.33,1.33,0,0,0-.43,1.79,1.42,1.42,0,0,0,1.87.52C475,41.33,489.65,24,483,15.24Z"/><path d="M447.09,137.5a12,12,0,0,1-5.54-1.6,11.47,11.47,0,0,1-3.8-3.65,14.4,14.4,0,0,1-2-5.2,21.3,21.3,0,0,1-.17-6.33,22.24,22.24,0,0,1,1.62-6,23,23,0,0,1,3.29-5.59,18,18,0,0,1,4.62-4.13,10.52,10.52,0,0,1,5.66-1.62,4.78,4.78,0,0,1,3.46,1.23,7,7,0,0,1,1.84,3,10.59,10.59,0,0,1,.43,3.82,11.32,11.32,0,0,1-.8,3.67,2,2,0,0,1-.65.82.7.7,0,0,1-1.21-.39A2.67,2.67,0,0,1,454,114a12.44,12.44,0,0,0,.34-2.25,11.48,11.48,0,0,0-.09-2.59,5.19,5.19,0,0,0-.8-2.15,2,2,0,0,0-1.77-.89,5.81,5.81,0,0,0-3.19,1.18,13.84,13.84,0,0,0-3.33,3.41,23.89,23.89,0,0,0-2.83,5.47,29.43,29.43,0,0,0-1.67,7.31,16.81,16.81,0,0,0,.12,4.52,12.18,12.18,0,0,0,1.23,3.73,7.45,7.45,0,0,0,2.22,2.58,6,6,0,0,0,3,1.11,10.22,10.22,0,0,0,6-1.3,17,17,0,0,0,4.88-4.31,31.63,31.63,0,0,0,3.87-6.46,67.62,67.62,0,0,0,3-7.84q1.3-4.13,2.25-8.39t1.57-8.11q.63-3.84,1-7t.56-5.12q-.82.43-2,.92t-2.44.87a15.53,15.53,0,0,1-2.52.56,5,5,0,0,1-2.18-.12A2.5,2.5,0,0,1,459.74,88a3.86,3.86,0,0,1-.31-2.44,6.79,6.79,0,0,1,1.38-3.36,11.46,11.46,0,0,1,2.71-2.54A12.77,12.77,0,0,1,466.87,78a11.35,11.35,0,0,1,3.33-.56,6,6,0,0,1,1.55.17,4.14,4.14,0,0,1,1.16.51,6,6,0,0,1,1,.82L475,80.09q2.81-.77,5.85-1.38t5.93-1q2.88-.38,5.39-.6c1.67-.14,3.09-.22,4.26-.22A4.35,4.35,0,0,1,499.64,78q1.09,1.06.75,3.72a17.12,17.12,0,0,1-.7,3.29,14.14,14.14,0,0,1-.92,2.2,4.91,4.91,0,0,1-.87,1.23c-.27.26-.46.39-.56.39h-.41a.56.56,0,0,1-.41-.14.57.57,0,0,1-.12-.46,2.32,2.32,0,0,1,.46-.94,6,6,0,0,0,.55-1.09,11.64,11.64,0,0,0,.56-1.69,18.24,18.24,0,0,0,.39-1.94,6.35,6.35,0,0,0,0-1.81,2.68,2.68,0,0,0-.56-1.35,1.64,1.64,0,0,0-1.35-.53,9.42,9.42,0,0,0-1.65.24c-.77.16-1.71.37-2.8.63s-2.3.57-3.6.92-2.64.73-4,1.13-2.69.82-4,1.24-2.55.84-3.67,1.26q-.34,2.71-.8,6.48t-1.19,8.12q-.73,4.36-1.77,9a80.3,80.3,0,0,1-2.59,9,57.51,57.51,0,0,1-3.65,8.29,29.37,29.37,0,0,1-4.93,6.75,19.8,19.8,0,0,1-6.48,4.38A18.21,18.21,0,0,1,447.09,137.5Zm23.26-55.14a2.33,2.33,0,0,0-.48-1.86,1.88,1.88,0,0,0-1.4-.6,4.9,4.9,0,0,0-1.62.34,10,10,0,0,0-1.91.94,9.37,9.37,0,0,0-1.81,1.5,7.83,7.83,0,0,0-1.38,2c-.26.58-.26.94,0,1.09a1.8,1.8,0,0,0,1.21.05,11.45,11.45,0,0,0,1.94-.63q1.11-.46,2.2-1t2-1A12.84,12.84,0,0,0,470.35,82.36Z"/><path d="M493.62,123.82a7,7,0,0,0,0,.94,2.67,2.67,0,0,0,.17,1,.57.57,0,0,0,.6.39c.29,0,.71-.32,1.26-.9a22.35,22.35,0,0,0,2.05-2.78q1.13-1.77,2.27-3.92t2.25-4.5q1.11-2.35,2.08-4.53a.53.53,0,0,1,.43-.36,1.8,1.8,0,0,1,.65,0,1.16,1.16,0,0,1,.53.22.32.32,0,0,1,.12.41q-.48,1.11-1.28,3T502.89,117q-1,2.25-2.35,4.57a27.77,27.77,0,0,1-2.81,4.14,13.91,13.91,0,0,1-3.14,2.88,5,5,0,0,1-3.43.82,2.83,2.83,0,0,1-1.72-.82,5.08,5.08,0,0,1-1-1.62,7.45,7.45,0,0,1-.51-2.05,20.23,20.23,0,0,1-.12-2.18c-.45.71-1,1.46-1.53,2.27a13.42,13.42,0,0,1-2,2.22,9.25,9.25,0,0,1-2.54,1.64,7.19,7.19,0,0,1-3.32.53,5.41,5.41,0,0,1-2.42-.6,5.34,5.34,0,0,1-1.69-1.45,6.34,6.34,0,0,1-1-2.08,9,9,0,0,1-.34-2.49,25.89,25.89,0,0,1,.41-4.86,33.89,33.89,0,0,1,1.38-5.27,37.36,37.36,0,0,1,2.2-5.08,22.45,22.45,0,0,1,2.88-4.28,13.28,13.28,0,0,1,3.49-2.9,6.85,6.85,0,0,1,3.92-.92,3.39,3.39,0,0,1,2.81,1.87,12.31,12.31,0,0,1,1.36,4.09,11.59,11.59,0,0,1,.51-3,15.57,15.57,0,0,1,.6-1.64,2,2,0,0,1,1.55-1.38,5,5,0,0,1,2.18.05,4.81,4.81,0,0,1,1.74.77c.45.34.55.62.29.85a4.87,4.87,0,0,0-.8,1.91q-.46,1.62-.94,3.89t-.94,5q-.46,2.69-.87,5.1t-.7,4.28C493.82,122.52,493.68,123.36,493.62,123.82Zm-6-22a5.39,5.39,0,0,0-3.26,2.13,21,21,0,0,0-2.83,4.57,36.38,36.38,0,0,0-2.11,5.76,34.61,34.61,0,0,0-1.11,5.76,14.26,14.26,0,0,0,.15,4.5c.27,1.21.83,1.88,1.67,2a3.32,3.32,0,0,0,2.1-.43,8.79,8.79,0,0,0,2-1.62,15.12,15.12,0,0,0,1.84-2.39c.56-.9,1.08-1.83,1.54-2.78s.87-1.87,1.21-2.76a18.68,18.68,0,0,0,.75-2.34,8.94,8.94,0,0,0,.26-1.57q.12-1.13.17-2.56c0-.95,0-1.93,0-2.92a16.5,16.5,0,0,0-.34-2.73,5.72,5.72,0,0,0-.75-2A1.31,1.31,0,0,0,487.62,101.86Z"/><path d="M507.31,100.21a3.75,3.75,0,0,1,1.67,2.13,8.62,8.62,0,0,1,.41,2.95,28.7,28.7,0,0,1-.75,4.38l-1.14,4.47q-.58,2.27-1,4.62a24.66,24.66,0,0,0-.46,4.77q0,2.61,1,3.22t2.42-.82a18.56,18.56,0,0,0,3.14-4.89,51.36,51.36,0,0,0,3.19-9v0l.34-.68c.39-1.45.7-2.8.94-4s.44-2.61.6-4.09a2.77,2.77,0,0,0-.17-1.23,4.5,4.5,0,0,0-.46-.85l-.41-.58a.27.27,0,0,1,0-.41,2.31,2.31,0,0,1,.85-.34q.65-.16,2.05-.41a2.63,2.63,0,0,1,2.44.51,3.9,3.9,0,0,1,1,2.25,12.32,12.32,0,0,1,0,3.29c-.15,1.23-.34,2.44-.6,3.63s-.53,2.31-.82,3.36-.5,1.85-.63,2.39q-.73,2.95-1.19,4.88a17.32,17.32,0,0,0-.51,3.24c0,.26,0,.55,0,.87a4.69,4.69,0,0,0,.12.89,2.12,2.12,0,0,0,.29.7.56.56,0,0,0,.48.29c.39,0,.86-.34,1.43-1a20.22,20.22,0,0,0,1.79-2.61q.94-1.59,1.91-3.48c.65-1.26,1.24-2.48,1.77-3.68s1-2.25,1.38-3.19.65-1.6.77-2c.29-.65.56-1,.82-1s.6.23,1,.85c-.35.84-.78,1.89-1.28,3.17s-1,2.63-1.64,4.06-1.26,2.88-2,4.33a32,32,0,0,1-2.3,3.92,13,13,0,0,1-2.59,2.83,4.59,4.59,0,0,1-2.88,1.09,4.65,4.65,0,0,1-3.84-1.43,6,6,0,0,1-1.19-3.7l0-.82a8.94,8.94,0,0,1-1.23,2.58,9.37,9.37,0,0,1-2,2.13,8.62,8.62,0,0,1-2.54,1.36,6.3,6.3,0,0,1-2.83.26,4.6,4.6,0,0,1-3.26-1.94,7.37,7.37,0,0,1-1-4.45l0-.19a43.67,43.67,0,0,1,.7-5.54q.56-3,1.14-5.81t1.06-5.22a24.86,24.86,0,0,0,.53-3.84,2.83,2.83,0,0,0-.1-1.11c-.09-.29-.17-.57-.24-.83a.76.76,0,0,1,.43-.75,2.13,2.13,0,0,1,1-.22,4.38,4.38,0,0,1,1.45.22A4.83,4.83,0,0,1,507.31,100.21Zm6-11.27a.67.67,0,0,1,.58-.68,2.2,2.2,0,0,1,1.23.19,4.51,4.51,0,0,1,1.38.94,3.72,3.72,0,0,1,1,1.57,2.15,2.15,0,0,1-.17,1.62,6.1,6.1,0,0,1-1.14,1.6,9.45,9.45,0,0,1-1.64,1.36,12.68,12.68,0,0,1-1.67.94,2.48,2.48,0,0,1-1.19.29c-.29,0-.37-.21-.24-.53a11.91,11.91,0,0,0,.41-1.33l.48-1.86q.27-1,.51-2.08C513,90.27,513.14,89.59,513.31,88.94Z"/><path class="cls-2" d="M234.35,114l-.33,1.6h0a6.16,6.16,0,0,1,1.8-1.42,4.56,4.56,0,0,1,2.12-.51,3.92,3.92,0,0,1,1.9.44,2.15,2.15,0,0,1,1,1.54,6.8,6.8,0,0,1,1.67-1.38,4.2,4.2,0,0,1,2.2-.6,5.47,5.47,0,0,1,1.64.23,2.57,2.57,0,0,1,1.17.74,2.61,2.61,0,0,1,.59,1.32,5.36,5.36,0,0,1-.1,2l-1.65,7.95h-3.15l1.4-6.73c.08-.4.15-.77.19-1.12a2.11,2.11,0,0,0-.05-.92,1.11,1.11,0,0,0-.46-.62,1.82,1.82,0,0,0-1-.23,2.26,2.26,0,0,0-1.13.26,2.62,2.62,0,0,0-.79.69,3.47,3.47,0,0,0-.51,1,8.45,8.45,0,0,0-.3,1.09l-1.37,6.61h-3.15l1.39-6.66c.07-.35.14-.7.2-1a2.72,2.72,0,0,0,0-1,1.11,1.11,0,0,0-.41-.7,1.8,1.8,0,0,0-1.1-.26,2.72,2.72,0,0,0-.62.1,2.57,2.57,0,0,0-.8.39,3.13,3.13,0,0,0-.77.83,4,4,0,0,0-.54,1.41L232,125.9h-3.14L231.38,114Z"/><path class="cls-2" d="M251.92,123a2.27,2.27,0,0,0,1.89.71,3.27,3.27,0,0,0,1.75-.49,2.75,2.75,0,0,0,1.06-1h2.78a7.34,7.34,0,0,1-2.68,3.05,6.86,6.86,0,0,1-3.52.92,5.69,5.69,0,0,1-2.36-.45,3.73,3.73,0,0,1-1.57-1.27,4.5,4.5,0,0,1-.75-2,7.23,7.23,0,0,1,.12-2.53,8.36,8.36,0,0,1,.94-2.48,7.92,7.92,0,0,1,1.61-2,7.58,7.58,0,0,1,2.13-1.32,6.52,6.52,0,0,1,2.49-.48,4.6,4.6,0,0,1,2.43.59,3.8,3.8,0,0,1,1.47,1.57,5.42,5.42,0,0,1,.54,2.25,8.73,8.73,0,0,1-.33,2.64h-8.29a2.94,2.94,0,0,0,.3,2.3Zm4.86-6.24a1.78,1.78,0,0,0-1.59-.64,3,3,0,0,0-1.31.26,3.23,3.23,0,0,0-.94.65,3.18,3.18,0,0,0-.59.82,4.37,4.37,0,0,0-.31.78h5.14a3.18,3.18,0,0,0-.4-1.88Z"/><path class="cls-2" d="M270.85,126.75a5.22,5.22,0,0,1-1.17,1.71,6.45,6.45,0,0,1-2.08,1.34,8.34,8.34,0,0,1-3.27.55,6.67,6.67,0,0,1-1.68-.22,4.21,4.21,0,0,1-1.46-.67,3,3,0,0,1-1-1.17,3.09,3.09,0,0,1-.18-1.73h3.13a1.43,1.43,0,0,0,.6,1.27,2.63,2.63,0,0,0,1.41.35,2.77,2.77,0,0,0,2.12-.83,4.07,4.07,0,0,0,1-2.09l.33-1.56h-.06a4.33,4.33,0,0,1-1.74,1.4,5.18,5.18,0,0,1-2.08.45,4.28,4.28,0,0,1-2.12-.47,3.13,3.13,0,0,1-1.26-1.28,4.49,4.49,0,0,1-.48-1.91,9.13,9.13,0,0,1,.2-2.31,8.92,8.92,0,0,1,.78-2.22,7.6,7.6,0,0,1,1.33-1.88,6.19,6.19,0,0,1,1.81-1.3,5.12,5.12,0,0,1,2.22-.48,3.73,3.73,0,0,1,1.89.44,2.57,2.57,0,0,1,1.12,1.47h.06l.33-1.58h3l-2.31,11.1a9.23,9.23,0,0,1-.53,1.63Zm-3.5-3.95a3.32,3.32,0,0,0,1-.73,4.35,4.35,0,0,0,.72-1,5.2,5.2,0,0,0,.42-1.23,7.16,7.16,0,0,0,.15-1.39,3,3,0,0,0-.21-1.16,1.73,1.73,0,0,0-.65-.8,2.2,2.2,0,0,0-1.23-.3,2.58,2.58,0,0,0-1.2.28,3.29,3.29,0,0,0-1,.75,4.2,4.2,0,0,0-.69,1.08,6.35,6.35,0,0,0-.41,1.27,6.8,6.8,0,0,0-.14,1.27,2.94,2.94,0,0,0,.19,1.14,1.85,1.85,0,0,0,.62.82,1.88,1.88,0,0,0,1.16.32,2.82,2.82,0,0,0,1.24-.27Z"/><path class="cls-2" d="M275.43,115.79a5.14,5.14,0,0,1,1.49-1.22,6.5,6.5,0,0,1,1.83-.65,9.81,9.81,0,0,1,1.93-.2,11.72,11.72,0,0,1,1.72.13,4.43,4.43,0,0,1,1.52.49,2.42,2.42,0,0,1,1,1,2.63,2.63,0,0,1,.1,1.73l-1.28,6.16a12.55,12.55,0,0,0-.23,1.53,2.49,2.49,0,0,0,.08,1.1H280.4a4.3,4.3,0,0,1,0-.56,4.85,4.85,0,0,1,0-.59,5.29,5.29,0,0,1-2,1.12,7.66,7.66,0,0,1-2.15.32,5,5,0,0,1-1.49-.21,2.63,2.63,0,0,1-1.11-.64,2.24,2.24,0,0,1-.6-1.1,3.58,3.58,0,0,1,0-1.58,4.17,4.17,0,0,1,.69-1.66,4,4,0,0,1,1.11-1,5,5,0,0,1,1.36-.59,14.86,14.86,0,0,1,1.47-.31c.49-.08,1-.14,1.44-.19a9.11,9.11,0,0,0,1.26-.2,2.65,2.65,0,0,0,.93-.4,1.14,1.14,0,0,0,.44-.77,1.62,1.62,0,0,0,0-.84.92.92,0,0,0-.34-.48,1.41,1.41,0,0,0-.6-.23,4.81,4.81,0,0,0-.77-.06,2.72,2.72,0,0,0-1.55.42,2.43,2.43,0,0,0-.91,1.38h-3.14a4.76,4.76,0,0,1,1-1.91Zm5.26,4.59a6.18,6.18,0,0,1-.68.17c-.24,0-.49.08-.75.11l-.78.12a6.48,6.48,0,0,0-.74.18,2.45,2.45,0,0,0-.66.31,1.85,1.85,0,0,0-.52.49,1.93,1.93,0,0,0-.32.76,1.45,1.45,0,0,0,0,.73.89.89,0,0,0,.32.47,1.49,1.49,0,0,0,.57.24,3.76,3.76,0,0,0,.72.07,3.08,3.08,0,0,0,1.51-.32,2.86,2.86,0,0,0,.92-.77,3.06,3.06,0,0,0,.49-.91c.1-.3.17-.55.21-.73l.25-1.21a1.77,1.77,0,0,1-.56.29Z"/><path class="cls-2" d="M287.93,122.95a1.44,1.44,0,0,0,.42.62,1.8,1.8,0,0,0,.69.36,3.19,3.19,0,0,0,.88.11,3.54,3.54,0,0,0,.72-.08,2.88,2.88,0,0,0,.72-.25,2.1,2.1,0,0,0,.6-.46,1.5,1.5,0,0,0,.35-.72c.1-.49-.14-.86-.72-1.1a16.25,16.25,0,0,0-2.48-.73,13,13,0,0,1-1.27-.38,3.53,3.53,0,0,1-1-.57,2.06,2.06,0,0,1-.64-.89,2.42,2.42,0,0,1,0-1.32,4.22,4.22,0,0,1,2.2-3,6,6,0,0,1,1.72-.6,10.21,10.21,0,0,1,1.86-.17,8.26,8.26,0,0,1,1.77.18,3.77,3.77,0,0,1,1.44.62,2.76,2.76,0,0,1,.9,1.16,3.58,3.58,0,0,1,.16,1.83h-3c.08-.64-.06-1.06-.42-1.29a2.64,2.64,0,0,0-1.39-.34c-.18,0-.37,0-.59,0a2.2,2.2,0,0,0-.59.15,1.55,1.55,0,0,0-.5.33,1.13,1.13,0,0,0-.3.58.76.76,0,0,0,.16.71,1.8,1.8,0,0,0,.72.45,8.21,8.21,0,0,0,1.08.31l1.24.29a11.68,11.68,0,0,1,1.27.39,3.35,3.35,0,0,1,1,.61,2.18,2.18,0,0,1,.63.94,2.64,2.64,0,0,1,0,1.39,4.7,4.7,0,0,1-.87,2,5,5,0,0,1-1.45,1.27,5.81,5.81,0,0,1-1.82.68,10.07,10.07,0,0,1-2,.2,8.53,8.53,0,0,1-1.91-.21,4.1,4.1,0,0,1-1.56-.69,2.88,2.88,0,0,1-1-1.27,3.69,3.69,0,0,1-.11-2h3a1.73,1.73,0,0,0,0,.91Z"/><path class="cls-2" d="M305.08,114l-.45,2.17h-2.31l-1.22,5.87a1.46,1.46,0,0,0,0,1.1c.14.19.47.28,1,.28l.52,0,.48-.07-.53,2.53a8.18,8.18,0,0,1-.9.09l-1,0a8.46,8.46,0,0,1-1.36-.1,2.67,2.67,0,0,1-1.07-.4,1.58,1.58,0,0,1-.61-.85,2.92,2.92,0,0,1,0-1.45l1.45-7h-1.91l.45-2.17h1.91l.46-2.23h3.14l-.46,2.23Z"/><path class="cls-2" d="M305.56,117.38a7.48,7.48,0,0,1,1.61-2,7.08,7.08,0,0,1,4.67-1.71,5.74,5.74,0,0,1,2.36.45,4,4,0,0,1,1.62,1.26,4.43,4.43,0,0,1,.79,2,7.25,7.25,0,0,1-.12,2.59,8.66,8.66,0,0,1-1,2.57,7.54,7.54,0,0,1-1.61,2,6.83,6.83,0,0,1-2.14,1.25,7.35,7.35,0,0,1-2.55.44,5.83,5.83,0,0,1-2.35-.44,4,4,0,0,1-1.61-1.25,4.46,4.46,0,0,1-.79-2,7.14,7.14,0,0,1,.11-2.57,8.76,8.76,0,0,1,1-2.58Zm2,4a3.27,3.27,0,0,0,.2,1.21,1.86,1.86,0,0,0,.68.86,2.24,2.24,0,0,0,1.27.32,3,3,0,0,0,1.42-.32,3.28,3.28,0,0,0,1.05-.86,4.83,4.83,0,0,0,.71-1.21,8.29,8.29,0,0,0,.42-1.39,7.31,7.31,0,0,0,.16-1.4,3.12,3.12,0,0,0-.21-1.22,2,2,0,0,0-.69-.86,2.25,2.25,0,0,0-1.29-.33,2.88,2.88,0,0,0-1.41.33,3.62,3.62,0,0,0-1,.86,4.62,4.62,0,0,0-.71,1.22,8.54,8.54,0,0,0-.43,1.4,7.06,7.06,0,0,0-.15,1.39Z"/><path class="cls-2" d="M321.81,114l-.46,2.2h0a5.81,5.81,0,0,1,.82-1,5.23,5.23,0,0,1,1-.81,5.29,5.29,0,0,1,1.15-.52,4,4,0,0,1,1.19-.19,2.22,2.22,0,0,1,.66.12l-.63,3-.52-.08a5.27,5.27,0,0,0-.59,0,3.67,3.67,0,0,0-1.53.3,3.44,3.44,0,0,0-1.14.82,4.28,4.28,0,0,0-.77,1.2,7.56,7.56,0,0,0-.47,1.49l-1.11,5.34h-3.17L318.81,114Z"/><path class="cls-2" d="M329.42,123a2.26,2.26,0,0,0,1.89.71,3.25,3.25,0,0,0,1.75-.49,2.73,2.73,0,0,0,1.06-1h2.78a7.31,7.31,0,0,1-2.68,3.05,6.87,6.87,0,0,1-3.52.92,5.66,5.66,0,0,1-2.35-.45,3.8,3.8,0,0,1-1.58-1.27,4.55,4.55,0,0,1-.75-2,7.2,7.2,0,0,1,.11-2.53,8.45,8.45,0,0,1,.94-2.48,7.74,7.74,0,0,1,1.61-2,7.49,7.49,0,0,1,2.12-1.32,6.54,6.54,0,0,1,2.49-.48,4.61,4.61,0,0,1,2.43.59,3.79,3.79,0,0,1,1.47,1.57,5.45,5.45,0,0,1,.54,2.25,8.65,8.65,0,0,1-.32,2.64h-8.29a2.89,2.89,0,0,0,.3,2.3Zm4.86-6.24a1.77,1.77,0,0,0-1.59-.64,3,3,0,0,0-1.31.26,3.17,3.17,0,0,0-.93.65,3.26,3.26,0,0,0-.59.82,4.62,4.62,0,0,0-.3.78h5.13a3.14,3.14,0,0,0-.4-1.88Z"/><path class="cls-2" d="M112.35,91.73a35.49,35.49,0,0,0,12.35,2.48c2.82,0,9.81-.33,9.81-5.1,0-8.19-20.89-4-20.89-23,0-13.51,13.8-18.93,25.55-18.93A51.06,51.06,0,0,1,154.33,50a1.71,1.71,0,0,1,1.17,2.27l-2.56,9.07A2.19,2.19,0,0,1,150,62.82s-6.5-2.39-11.75-2.39c-3.89,0-8.16,1-8.16,5,0,6.42,21.86,6,21.86,20.48,0,14.28-10.59,21.29-23.71,21.59a72.06,72.06,0,0,1-19-2.46,2.32,2.32,0,0,1-1.73-2.85l2.5-9.73S110.51,91,112.35,91.73Z"/><path class="cls-2" d="M263.39,26.09a3,3,0,0,1,2.81-2.34h12.91a1.92,1.92,0,0,1,2,2.34l-14.29,77.75a3,3,0,0,1-2.82,2.34H251.05a1.92,1.92,0,0,1-2-2.34l14.3-77.75Z"/><path class="cls-2" d="M286.59,26.09a3,3,0,0,1,2.81-2.34h12.91a1.92,1.92,0,0,1,2,2.34L290,103.84a3,3,0,0,1-2.81,2.34H274.25a1.92,1.92,0,0,1-2-2.34l14.3-77.75Z"/><path class="cls-2" d="M39.35,103.87a4.73,4.73,0,0,1-3.86,2.31H15.75a3,3,0,0,1-3-2.55L3.44,25.86a2.28,2.28,0,0,1,2.38-2.55H20.87a2.91,2.91,0,0,1,2.89,2.56l4.71,57.57A15.49,15.49,0,0,0,28.79,86,18.48,18.48,0,0,0,30,83.66l27.28-58a4.54,4.54,0,0,1,3.78-2.34H77.65c1.47,0,2.15,1,1.51,2.31l-39.8,78.25Z"/><path class="cls-2" d="M158.39,62.42H163a1.92,1.92,0,0,1,2,2.35l-2.6,13.82c-.29,1.5-.53,2.8-.73,4l-.72,6.07c-.06.48-.09,1-.12,1.44,0,.13,0,.26,0,.39a25.37,25.37,0,0,0,.32,4.11c1.77,8.89,10.28,14.35,21.33,12.71a29.07,29.07,0,0,0,3.26-.68,3.5,3.5,0,0,0,2.57-2.56l1.49-10.09s0-.68-.69-.39a13.57,13.57,0,0,1-4.88,1.32c-3.52,0-5.78-2.55-5.78-6.42a51.3,51.3,0,0,1,1-7.62c.26-1.29.68-3.41.92-4.7l2.15-11.36a3,3,0,0,1,2.85-2.35h8A2.9,2.9,0,0,0,196.1,60l1.42-9.22a2,2,0,0,0-2-2.37h-7.33a1.91,1.91,0,0,1-1.95-2.35l2.61-13.35c.25-1.29-.58-2-1.84-1.65l-14,4.25a4.41,4.41,0,0,0-2.76,3l-1.52,7.71a3,3,0,0,1-2.87,2.35h-5.28a2.9,2.9,0,0,0-2.77,2.37L156.35,60A2,2,0,0,0,158.39,62.42Z"/><path class="cls-2" d="M255,48.92H241.21a4.13,4.13,0,0,0-3.41,2.15L222.65,82.93a17.52,17.52,0,0,1-1.12,2.15,15.11,15.11,0,0,1-.4-2.36l-4-31.44a2.78,2.78,0,0,0-2.68-2.36h-13a1.89,1.89,0,0,0-1.93,2.33L210.26,106c-2,5.83-5.25,9.45-10.2,9.45a18.94,18.94,0,0,1-5.72-.85,2.14,2.14,0,0,0-2.84,1.5s-2.7,10.33-2.72,10.77a2.18,2.18,0,0,0,1.65,2h0a36.29,36.29,0,0,0,11.67,1.74c11.17,0,16.91-6.7,22.05-16.81L256.3,51A1.34,1.34,0,0,0,255,48.92Z"/><path class="cls-2" d="M89.25,47.6C66.71,47.6,58.31,68,57.91,81.34c-.44,14.4,8.34,26.16,25.24,26.16A52.89,52.89,0,0,0,98.66,105a3.67,3.67,0,0,0,2.65-2.6c.17-.56,1.83-9.71,1.83-9.71.24-1.29-.57-2-1.83-1.55,0,0-3.17,1.11-6.72,2-.61.18-1.24.33-1.88.46l-.13,0h0C85.1,95,78.23,92.32,75.81,87.36h0A12.19,12.19,0,0,1,74.7,84.5c-.17-.92.4-1.13.83-1.17a4.12,4.12,0,0,1,.44,0h32.2a2.63,2.63,0,0,0,2.46-2,60.57,60.57,0,0,0,1.16-8.76C112.33,55.19,102.56,47.6,89.25,47.6Zm8,24.51H77.35c-.65,0-1.38-.22-.71-1.78,3-6.88,9.76-10.47,14.78-8.91a7.4,7.4,0,0,1,3.95,3,8.93,8.93,0,0,1,1.43,3.09l0,.14c0,.1.05.19.07.29a15.8,15.8,0,0,1,.45,4.16Z"/><path class="cls-2" d="M328.52,47.6C306,47.6,297.59,68,297.18,81.34c-.44,14.4,8.34,26.16,25.24,26.16A52.93,52.93,0,0,0,337.93,105a3.68,3.68,0,0,0,2.65-2.6c.17-.56,1.83-9.71,1.83-9.71.25-1.29-.57-2-1.82-1.55,0,0-3.17,1.11-6.72,2-.61.18-1.24.33-1.88.46l-.14,0h0c-7.48,1.4-14.34-1.32-16.77-6.28h0A12,12,0,0,1,314,84.5c-.17-.92.4-1.13.83-1.17a4.13,4.13,0,0,1,.44,0h32.2a2.63,2.63,0,0,0,2.46-2,60.21,60.21,0,0,0,1.17-8.76C351.6,55.19,341.83,47.6,328.52,47.6Zm8,24.51H316.62c-.65,0-1.38-.22-.71-1.78,3-6.88,9.76-10.47,14.79-8.91a7.41,7.41,0,0,1,3.94,3,8.85,8.85,0,0,1,1.42,3.09l0,.14.07.29a15.92,15.92,0,0,1,.45,4.16Z"/><path class="cls-2" d="M479.83,41.5a1.53,1.53,0,0,0-2,0c-12.47,11.22-23,13.44-37,13.5s-26.46-2.93-38-6.17a235.43,235.43,0,0,1-33.15-11.64h-.06c-1.28-.5-3.13-1.62-3.35-2.48,0-.06-.08-.33.46-.87.71-.67,1.39-1.33.77-2.3a1.63,1.63,0,0,0-1.72-.53c-.92.35-8.92,8.1-8.59,10.75,0,.41.09.78.11,1.15.13,1.64.27,3.67,2.89,4.54a241.81,241.81,0,0,0,51,15.16c-7,3-19.7,5.24-33.82-.72-.1,0-.16-.06-.31-.07s-5.63-1.2-4.87-4.9c0-.1,0-.24,0-.38A1.4,1.4,0,0,0,371,55.37c-1.4-.24-1.4-.24-7.64,13.88a1.31,1.31,0,0,0,.44,1.54c8.11,6.34,19,10.54,30.82,12-2,1.74-2.72,3.73-12.89,2.57-4.73-.36-7.59-1.52-6.88-3.84.42-1.41-.4-2.14-1-2.23-1.43-.27-1.23-2.27-7.43,11.9A1.27,1.27,0,0,0,367.1,93c8.37,4,15.53,3.87,23.84,3.71,2-.06,4.07-.07,6.16-.06.77,0,1.59,0,2.43,0-1,.43-2.58,1-4.85,1.77l-.2.05a31.45,31.45,0,0,1-5.17,1.26,23.64,23.64,0,0,0-8.2,2.69l-.33.16-.45.21a1.25,1.25,0,0,0-.69,1.63,3.75,3.75,0,0,0,1.44,1.58,60.59,60.59,0,0,0,17.78,4.17c-4.88,1.83-9.55,4-13.3,7.4a1.17,1.17,0,0,0-.43,1,1.33,1.33,0,0,0,.54,1,20.14,20.14,0,0,0,7.43,3.41,28.43,28.43,0,0,1,6.41,2.53,9.23,9.23,0,0,1-4.17,2,116.32,116.32,0,0,0-12.92,3.76c-2.48.81-4.25,2.56-3.77,3.75.61,1.37,2.26,2.08,7,1.23s21-5.85,21.08-5.84c2.05-.83,5.92-2.12,7.11-5a1.25,1.25,0,0,0-.55-1.59c-3.24-2-7.67-4.72-11.21-6-1.23-.46-2.42-.88-3.6-1.34a144.06,144.06,0,0,0,20.41-12.68,1.47,1.47,0,0,0,.37-1.46,1.58,1.58,0,0,0-1.28-.91,122.54,122.54,0,0,1-14.71-1.72,109.15,109.15,0,0,0,31.27-15.69,1.3,1.3,0,0,0,.31-1.76,1.47,1.47,0,0,0-1.85-.49c-10.21,4.69-22.48,6.59-34.65,5.48a127.26,127.26,0,0,0,19.61-6.07c.83-.35,1.72-.7,2.65-1.12a74.19,74.19,0,0,0,15.55-9.21,1.35,1.35,0,0,0,.23-1.82,1.5,1.5,0,0,0-1.91-.36l-.38.17a1.85,1.85,0,0,0-.58.19l-1.28.74-3.73,2.12c-9.56,3.93-21.18,2.08-29.07.29a51.51,51.51,0,0,1-6.4-1.84c13.81-.52,25-1.41,35.6-2.76,22-2.8,40.24-11.44,51.36-24.32a1.26,1.26,0,0,0-.15-1.8Z"/><path class="cls-2" d="M459.58,20.67c-4.33-8.22-20.15-9.88-32.35-8.75-10.74.95-27.91,10.07-28.65,10.45a1.27,1.27,0,0,0-.5,1.82,1.48,1.48,0,0,0,1.92.56c.1-.06,9.93-5,28.78-6.33,15.14-1.06,19.74,5.9,20.15,7.83.67,3.19,1.94,9.07-14.61,13.39C418.58,43.72,390.5,25.84,383.26,21l9.62-5.3a1.25,1.25,0,0,0,.59-1.58,1.5,1.5,0,0,0-1.52-.9l-.63.09c-6.83.74-22.9,2.68-22,10.84.22,1.68,2,3.71,5.44,6.11,12.31,8.73,46.72,22.84,63.39,20.06,10.63-1.75,18.65-6.47,22.08-12.91,2.67-5,2.43-10.81-.68-16.69Z"/><path class="cls-2" d="M480.38,14.37C466.69-3.46,445.62,3.93,444.78,4.1a1.32,1.32,0,0,0-1,1.5,1.42,1.42,0,0,0,1.53,1.14c.2,0,20.55-1.2,27.61,12.3,2.83,5.52-.87,18.07-4.11,20.16a1.33,1.33,0,0,0-.43,1.79,1.42,1.42,0,0,0,1.87.52c2.17-1,16.83-18.41,10.16-27.15Z"/><path class="cls-3" d="M444.49,136.64A12,12,0,0,1,439,135a11.47,11.47,0,0,1-3.8-3.65,14.4,14.4,0,0,1-2-5.2,21.3,21.3,0,0,1-.17-6.33,22.24,22.24,0,0,1,1.62-6,23,23,0,0,1,3.29-5.59,18,18,0,0,1,4.62-4.13,10.52,10.52,0,0,1,5.66-1.62,4.78,4.78,0,0,1,3.46,1.23,7,7,0,0,1,1.84,3,10.59,10.59,0,0,1,.43,3.82,11.32,11.32,0,0,1-.8,3.67,2,2,0,0,1-.65.82.7.7,0,0,1-1.21-.39,2.67,2.67,0,0,1,.12-1.5,12.44,12.44,0,0,0,.34-2.25,11.48,11.48,0,0,0-.09-2.59,5.19,5.19,0,0,0-.8-2.15,2,2,0,0,0-1.77-.89,5.81,5.81,0,0,0-3.19,1.18,13.84,13.84,0,0,0-3.33,3.41,23.89,23.89,0,0,0-2.83,5.47,29.43,29.43,0,0,0-1.67,7.31,16.81,16.81,0,0,0,.12,4.52,12.18,12.18,0,0,0,1.23,3.73,7.45,7.45,0,0,0,2.22,2.58,6,6,0,0,0,3,1.11,10.22,10.22,0,0,0,6-1.3,17,17,0,0,0,4.88-4.31,31.63,31.63,0,0,0,3.87-6.46,67.62,67.62,0,0,0,3-7.84q1.3-4.13,2.25-8.39t1.57-8.11q.63-3.84,1-7t.56-5.12q-.82.43-2,.92t-2.44.87a15.53,15.53,0,0,1-2.52.56,5,5,0,0,1-2.18-.12,2.5,2.5,0,0,1-1.43-1.14,3.86,3.86,0,0,1-.31-2.44,6.79,6.79,0,0,1,1.38-3.36,11.46,11.46,0,0,1,2.71-2.54,12.77,12.77,0,0,1,3.36-1.62,11.35,11.35,0,0,1,3.33-.56,6,6,0,0,1,1.55.17,4.14,4.14,0,0,1,1.16.51,6,6,0,0,1,1,.82l1.11,1.11q2.81-.77,5.85-1.38t5.93-1q2.88-.38,5.39-.6c1.67-.14,3.09-.22,4.26-.22A4.35,4.35,0,0,1,497,77.1q1.09,1.06.75,3.72a17.12,17.12,0,0,1-.7,3.29,14.14,14.14,0,0,1-.92,2.2,4.91,4.91,0,0,1-.87,1.23c-.27.26-.46.39-.56.39h-.41a.56.56,0,0,1-.41-.14.57.57,0,0,1-.12-.46,2.32,2.32,0,0,1,.46-.94,6,6,0,0,0,.55-1.09,11.64,11.64,0,0,0,.56-1.69,18.24,18.24,0,0,0,.39-1.94,6.35,6.35,0,0,0,0-1.81,2.68,2.68,0,0,0-.56-1.35,1.64,1.64,0,0,0-1.35-.53,9.42,9.42,0,0,0-1.65.24c-.77.16-1.71.37-2.8.63s-2.3.57-3.6.92-2.64.73-4,1.13-2.69.82-4,1.24-2.55.84-3.67,1.26q-.34,2.71-.8,6.48T472.16,98q-.73,4.36-1.77,9a80.3,80.3,0,0,1-2.59,9,57.51,57.51,0,0,1-3.65,8.29,29.37,29.37,0,0,1-4.93,6.75,19.8,19.8,0,0,1-6.48,4.38A18.21,18.21,0,0,1,444.49,136.64ZM467.75,81.5a2.33,2.33,0,0,0-.48-1.86,1.88,1.88,0,0,0-1.4-.6,4.9,4.9,0,0,0-1.62.34,10,10,0,0,0-1.91.94,9.37,9.37,0,0,0-1.81,1.5,7.83,7.83,0,0,0-1.38,2c-.26.58-.26.94,0,1.09a1.8,1.8,0,0,0,1.21.05,11.45,11.45,0,0,0,1.94-.63q1.11-.46,2.2-1t2-1A12.84,12.84,0,0,0,467.75,81.5Z"/><path class="cls-3" d="M491,123a7,7,0,0,0,0,.94,2.67,2.67,0,0,0,.17,1,.57.57,0,0,0,.6.39c.29,0,.71-.32,1.26-.9a22.35,22.35,0,0,0,2.05-2.78q1.13-1.77,2.27-3.92t2.25-4.5q1.11-2.35,2.08-4.53a.53.53,0,0,1,.43-.36,1.8,1.8,0,0,1,.65,0,1.16,1.16,0,0,1,.53.22.32.32,0,0,1,.12.41q-.48,1.11-1.28,3t-1.84,4.18q-1,2.25-2.35,4.57a27.77,27.77,0,0,1-2.81,4.14,13.91,13.91,0,0,1-3.14,2.88,5,5,0,0,1-3.43.82,2.83,2.83,0,0,1-1.72-.82,5.08,5.08,0,0,1-1-1.62,7.45,7.45,0,0,1-.51-2.05,20.23,20.23,0,0,1-.12-2.18c-.45.71-1,1.46-1.53,2.27a13.42,13.42,0,0,1-2,2.22,9.25,9.25,0,0,1-2.54,1.64,7.19,7.19,0,0,1-3.32.53,5.41,5.41,0,0,1-2.42-.6,5.34,5.34,0,0,1-1.69-1.45,6.34,6.34,0,0,1-1-2.08,9,9,0,0,1-.34-2.49,25.89,25.89,0,0,1,.41-4.86,33.89,33.89,0,0,1,1.38-5.27,37.36,37.36,0,0,1,2.2-5.08,22.45,22.45,0,0,1,2.88-4.28,13.28,13.28,0,0,1,3.49-2.9,6.85,6.85,0,0,1,3.92-.92,3.39,3.39,0,0,1,2.81,1.87,12.31,12.31,0,0,1,1.36,4.09,11.59,11.59,0,0,1,.51-3,15.57,15.57,0,0,1,.6-1.64,2,2,0,0,1,1.55-1.38,5,5,0,0,1,2.18.05,4.81,4.81,0,0,1,1.74.77c.45.34.55.62.29.85a4.87,4.87,0,0,0-.8,1.91q-.46,1.62-.94,3.89t-.94,5q-.46,2.69-.87,5.1t-.7,4.28C491.22,121.65,491.08,122.5,491,123Zm-6-22a5.39,5.39,0,0,0-3.26,2.13,21,21,0,0,0-2.83,4.57,36.38,36.38,0,0,0-2.11,5.76,34.61,34.61,0,0,0-1.11,5.76,14.26,14.26,0,0,0,.15,4.5c.27,1.21.83,1.88,1.67,2a3.32,3.32,0,0,0,2.1-.43,8.79,8.79,0,0,0,2-1.62,15.12,15.12,0,0,0,1.84-2.39c.56-.9,1.08-1.83,1.54-2.78s.87-1.87,1.21-2.76a18.68,18.68,0,0,0,.75-2.34,8.94,8.94,0,0,0,.26-1.57q.12-1.13.17-2.56c0-.95,0-1.93,0-2.92a16.5,16.5,0,0,0-.34-2.73,5.72,5.72,0,0,0-.75-2A1.31,1.31,0,0,0,485,101Z"/><path class="cls-3" d="M504.71,99.35a3.75,3.75,0,0,1,1.67,2.13,8.62,8.62,0,0,1,.41,2.95,28.7,28.7,0,0,1-.75,4.38l-1.14,4.47q-.58,2.27-1,4.62a24.66,24.66,0,0,0-.46,4.77q0,2.61,1,3.22t2.42-.82a18.56,18.56,0,0,0,3.14-4.89,51.36,51.36,0,0,0,3.19-9v0l.34-.68c.39-1.45.7-2.8.94-4s.44-2.61.6-4.09a2.77,2.77,0,0,0-.17-1.23,4.5,4.5,0,0,0-.46-.85l-.41-.58a.27.27,0,0,1,0-.41,2.31,2.31,0,0,1,.85-.34q.65-.16,2.05-.41a2.63,2.63,0,0,1,2.44.51,3.9,3.9,0,0,1,1,2.25,12.32,12.32,0,0,1,0,3.29c-.15,1.23-.34,2.44-.6,3.63s-.53,2.31-.82,3.36-.5,1.85-.63,2.39q-.73,2.95-1.19,4.88a17.32,17.32,0,0,0-.51,3.24c0,.26,0,.55,0,.87a4.69,4.69,0,0,0,.12.89,2.12,2.12,0,0,0,.29.7.56.56,0,0,0,.48.29c.39,0,.86-.34,1.43-1a20.22,20.22,0,0,0,1.79-2.61q.94-1.59,1.91-3.48c.65-1.26,1.24-2.48,1.77-3.68s1-2.25,1.38-3.19.65-1.6.77-2c.29-.65.56-1,.82-1s.6.23,1,.85c-.35.84-.78,1.89-1.28,3.17s-1,2.63-1.64,4.06-1.26,2.88-2,4.33a32,32,0,0,1-2.3,3.92,13,13,0,0,1-2.59,2.83,4.59,4.59,0,0,1-2.88,1.09,4.65,4.65,0,0,1-3.84-1.43,6,6,0,0,1-1.19-3.7l0-.82a8.94,8.94,0,0,1-1.23,2.58,9.37,9.37,0,0,1-2,2.13,8.62,8.62,0,0,1-2.54,1.36,6.3,6.3,0,0,1-2.83.26,4.6,4.6,0,0,1-3.26-1.94,7.37,7.37,0,0,1-1-4.45l0-.19a43.67,43.67,0,0,1,.7-5.54q.56-3,1.14-5.81t1.06-5.22a24.86,24.86,0,0,0,.53-3.84,2.83,2.83,0,0,0-.1-1.11c-.09-.29-.17-.57-.24-.83a.76.76,0,0,1,.43-.75,2.13,2.13,0,0,1,1-.22,4.38,4.38,0,0,1,1.45.22A4.83,4.83,0,0,1,504.71,99.35Zm6-11.27a.67.67,0,0,1,.58-.68,2.2,2.2,0,0,1,1.23.19,4.51,4.51,0,0,1,1.38.94,3.72,3.72,0,0,1,1,1.57,2.15,2.15,0,0,1-.17,1.62,6.1,6.1,0,0,1-1.14,1.6,9.45,9.45,0,0,1-1.64,1.36,12.68,12.68,0,0,1-1.67.94,2.48,2.48,0,0,1-1.19.29c-.29,0-.37-.21-.24-.53a11.91,11.91,0,0,0,.41-1.33l.48-1.86q.27-1,.51-2.08C510.38,89.4,510.54,88.73,510.7,88.08Z"/></svg>